<svg width="32" height="32" viewBox="0 0 32 32" fill="none" xmlns="http://www.w3.org/2000/svg">
  <circle cx="16" cy="16" r="15" fill="#0D1117" stroke="url(#paint0_linear)" strokeWidth="2"/>
  <path d="M21 11L16 8L11 11V18L16 21L21 18V11Z" stroke="url(#paint1_linear)" strokeWidth="1.5"/>
  <path d="M16 8V14" stroke="#05D9E8" strokeWidth="1.5"/>
  <path d="M16 21V15" stroke="#BF5AF2" strokeWidth="1.5"/>
  <path d="M11 11L16 14L21 11" stroke="#00FF9F" strokeWidth="1.5"/>
  <path d="M11 18L16 15L21 18" stroke="#FF2A6D" strokeWidth="1.5"/>
  <circle cx="16" cy="8" r="1.5" fill="#05D9E8"/>
  <circle cx="16" cy="21" r="1.5" fill="#BF5AF2"/>
  <circle cx="11" cy="11" r="1.5" fill="#00FF9F"/>
  <circle cx="21" cy="11" r="1.5" fill="#00FF9F"/>
  <circle cx="11" cy="18" r="1.5" fill="#FF2A6D"/>
  <circle cx="21" cy="18" r="1.5" fill="#FF2A6D"/>
  <circle cx="16" cy="14" r="1.5" fill="#FFFFFF"/>
  <circle cx="16" cy="15" r="1.5" fill="#FFFFFF"/>
  <defs>
    <linearGradient id="paint0_linear" x1="1" y1="16" x2="31" y2="16" gradientUnits="userSpaceOnUse">
      <stop stopColor="#05D9E8"/>
      <stop offset="1" stopColor="#BF5AF2"/>
    </linearGradient>
    <linearGradient id="paint1_linear" x1="11" y1="14.5" x2="21" y2="14.5" gradientUnits="userSpaceOnUse">
      <stop stopColor="#00FF9F"/>
      <stop offset="1" stopColor="#FF2A6D"/>
    </linearGradient>
  </defs>
</svg>